<?xml version="1.0" encoding="utf-8"?>
<!-- Generator: Adobe Illustrator 19.2.1, SVG Export Plug-In . SVG Version: 6.00 Build 0)  -->
<svg version="1.1" id="layer" xmlns="http://www.w3.org/2000/svg" xmlns:xlink="http://www.w3.org/1999/xlink" x="0px" y="0px"
	 viewBox="0 0 652 652" style="enable-background:new 0 0 652 652;" xml:space="preserve">
<style type="text/css">
	.st0{fill:#E30613;}
</style>
<path class="st0" d="M21.4,266.7v131h26.5V341l39.9,56.7h30.5l-45-64.5l46.3-66.3H89l-41.2,56.8v-57H21.4z M133,266.9L133,397.7
	h62.7l0.1-26.8h-36v-104H133z M337.4,397.7V266.9h43.8c19.8-0.4,36.5,14.8,38,34.5c0,17.9-3.6,22-14.3,29.9
	c11.4,2.9,18.2,12.2,18.2,28.3c0,24.9-19.6,38-39.2,38L337.4,397.7z M361.5,317.9h19.9c8.8,0,15.4-2.2,15.4-14.1
	c0-11.6-6.9-13.8-16.2-13.8h-19.1L361.5,317.9z M361.5,375.2H384c5.3,0,13.4-2.9,13.4-16.4c0.5-7.6-5.2-14.1-12.8-14.6
	c-0.2,0-0.4,0-0.6,0h-22.5V375.2z M437.2,397.7h70.4v-26.6h-44.5v-26.7h44.2v-26.4h-44.2l0-24.2h44l0.2-26.8h-70.2L437.2,397.7z
	 M552.4,397.7h-26.1V266.9H564c14.3,0,25.5,1.1,35.2,9.2c8.5,7.3,13.3,18,13.2,29.2c0,24.8-15.1,35.4-29.1,37.7l38,54.6h-32.9
	l-36-53V397.7z M552.4,344.7v-0.4h-0.3L552.4,344.7z M571.5,289.3h-19.4v28.6h20.7c8.1,0,16.9,0.1,16.9-13.9
	C589.7,288.5,576.9,289.3,571.5,289.3 M195.8,332.1c0-6.6,0.9-13.2,2.7-19.5c1.8-6.1,4.5-12,8.1-17.3c11.7-17.4,31.2-28,52.2-28.3
	l-25.7,36.4l-0.4,0.4c-7.4,7.2-11.5,17.1-11.4,27.5c0,5.2,0.9,10.3,2.7,15.1c1.8,4.7,4.5,9.1,7.9,12.8c3.6,4.1,8.1,7.4,13,9.8
	c4.7,2.2,9.8,3.4,15.1,3.4c10.4,0.2,20.4-4.1,27.4-11.8c7.4-7.9,11.4-18.4,11.1-29.3c0.2-9.4-3.2-18.5-9.5-25.6l14.8-21l1,1
	c6.1,6.1,10.9,13.3,14.2,21.2c3.3,7.8,4.9,16.2,4.9,24.7c0.1,8.7-1.5,17.3-4.6,25.3c-3,7.8-7.6,15-13.4,21
	c-11.8,12.7-28.5,19.9-45.8,19.9c-8.8,0.1-17.5-1.6-25.7-5c-7.9-3.4-15-8.5-20.8-14.9c-5.7-6.1-10.2-13.2-13.3-20.9
	C197.2,349,195.7,340.6,195.8,332.1"/>
<path id="Path_78" d="M287.3,245.2h31.5l-49.9,70.7h-31.5L287.3,245.2z"/>
</svg>
