<?xml version="1.0" encoding="utf-8"?>
<!-- Generator: Adobe Illustrator 19.2.1, SVG Export Plug-In . SVG Version: 6.00 Build 0)  -->
<svg version="1.1" id="layer" xmlns="http://www.w3.org/2000/svg" xmlns:xlink="http://www.w3.org/1999/xlink" x="0px" y="0px"
	 viewBox="0 0 652 652" style="enable-background:new 0 0 652 652;" xml:space="preserve">
<path d="M224.5,274.4L224.5,274.4c-0.7-26.5-19.9-43.5-46.1-43.5c-26.7,0-46.1,17.5-46.1,44.9c0,27.4,19.4,44.9,46.1,44.9
	c13.4,0,25.3-7.3,27.3-15.2v13.1h18.9v-42.3c0-0.2,0-0.3,0-0.6c0-0.2,0-0.3,0-0.6C224.5,275.3,224.5,274.4,224.5,274.4z
	 M204.9,275.9c0,15.9-10.5,27.5-26.5,27.5c-16.1,0-26.5-11.6-26.5-27.5s10.5-27.5,26.5-27.5C194.3,248.4,204.9,260,204.9,275.9z"/>
<path d="M349.5,234.1h18.9v84.8h-18.9C349.5,318.9,349.5,234.1,349.5,234.1z"/>
<path d="M446.8,240c-7.3-6.4-16.6-8.9-26.2-8.9c-16.8,0-32.6,9.6-32.6,27.8c0,28.5,40.1,20.1,40.1,35.8c0,6.1-6.9,8.9-13,8.9
	c-6.3,0-12.5-3-16.4-8.1l-13.4,14.7c8.1,7.5,17.7,10.8,28.7,10.8c17.6,0,32.9-9.1,32.9-28.2c0-29.9-39.4-19.9-39.4-35.5
	c0-6.4,7.4-8.8,12.7-8.8c4.6,0,10.6,1.8,13.7,5.7L446.8,240L446.8,240z"/>
<path d="M517.2,240c-7.3-6.4-16.6-8.9-26.2-8.9c-16.8,0-32.6,9.6-32.6,27.8c0,28.5,40.1,20.1,40.1,35.8c0,6.1-6.9,8.9-13,8.9
	c-6.3,0-12.5-3-16.4-8.1l-13.4,14.7c8.1,7.5,17.7,10.8,28.7,10.8c17.6,0,32.9-9.1,32.9-28.2c0-29.9-39.4-19.9-39.4-35.5
	c0-6.4,7.4-8.8,12.7-8.8c4.6,0,10.6,1.8,13.7,5.7L517.2,240L517.2,240z"/>
<path d="M620.3,276c0-27.4-19.4-44.9-46.1-44.9c-26.7,0-46.1,17.5-46.1,44.9s19.4,44.9,46.1,44.9C600.9,320.9,620.3,303.3,620.3,276
	z M600.7,276c0,15.9-10.5,27.5-26.5,27.5c-16,0-26.5-11.6-26.5-27.5s10.5-27.5,26.5-27.5C590.3,248.4,600.7,260,600.7,276z"/>
<path d="M97.8,234.1l-29,38.6l-29-38.6H20.3v84.6h18.9v-55.2l29.6,39.4l29.6-39.4v55.2h18.9v-84.6H97.8z"/>
<path d="M329.4,335.2v-59.3c0-27.4-19.4-44.9-46.1-44.9s-46.1,17.5-46.1,44.9s19.4,44.9,46.1,44.9c10.5,0,19.8-2.8,27.4-7.7v22
	h-19.2c-20.9,0.1-37.9,17-37.9,37.9c0,21,17,38,38,38s37.9-17,37.9-38v-19.2h38.9v-18.8L329.4,335.2L329.4,335.2z M310.7,353.9v19.2
	c0,10.6-8.6,19.1-19.1,19.1c-10.6,0-19.1-8.6-19.1-19.1s8.5-19.1,19-19.1L310.7,353.9L310.7,353.9z M309.9,275.9
	c0,15.9-10.5,27.5-26.5,27.5c-16,0-26.6-11.6-26.6-27.5s10.5-27.5,26.5-27.5C299.2,248.4,309.9,260,309.9,275.9z"/>
</svg>
